<svg width="116" height="111" viewBox="0 0 116 111" fill="none" xmlns="http://www.w3.org/2000/svg">
<path d="M83.375 78.0469L85.1875 79.7813L81.5625 86.7188H88.8125L94.25 81.5156V72.8438L90.625 71.1094L86.5541 61.3711L81.5625 71.1094L83.375 78.0469Z" fill="#DA7E21"/>
<path d="M83.375 71.1094L85.1875 78.0469L84.2813 78.9141L83.375 78.0469L81.5625 71.1094L86.5537 61.3708L87.6389 63.9681L83.375 71.1094Z" fill="#DA7E21"/>
<path d="M32.625 69.375V81.5156L29 83.25L30.8125 86.7188H38.0625L43.959 73.5535L32.625 69.375Z" fill="#DA7E21"/>
<path d="M36.25 76.3125C36.25 76.7725 36.059 77.2137 35.7192 77.5389C35.3793 77.8641 34.9183 78.0469 34.4375 78.0469H32.625V74.5781H34.4375C34.9183 74.5781 35.3793 74.7609 35.7192 75.0861C36.059 75.4113 36.25 75.8525 36.25 76.3125Z" fill="#DA7E21"/>
<path d="M63.4375 76.3125L68.875 79.7812L61.5765 80.9452C60.5774 81.1046 59.6695 81.598 59.0145 82.3375C58.3598 83.0772 58.0002 84.0151 58 84.9844V86.7188H74.3125L83.375 78.0469L81.5625 71.1094L87.6661 60.8885C88.0243 60.2886 88.5175 59.7724 89.11 59.3774C89.7027 58.9826 90.3794 58.7188 91.0917 58.6052C96.609 57.7252 101.56 54.8453 104.916 50.5633L106.212 48.9094C109.036 45.3069 110.562 40.925 110.562 36.4219L107.144 37.0762C105.366 37.4163 103.682 38.1083 102.201 39.1076C100.719 40.1068 99.4716 41.3915 98.5388 42.879C96.9409 45.4274 94.443 47.3448 91.4966 48.2846C87.4284 49.5821 83.0073 49.4275 79.049 47.8492L74.3125 45.9609C67.1706 43.1135 59.4108 41.9756 51.7056 42.6459L43.5 43.3594L36.8538 32.2299C36.4519 31.557 35.9958 30.9148 35.4899 30.3095C33.5673 28.0099 30.9772 26.3055 28.0453 25.4103C25.1133 24.5152 21.9702 24.4692 19.0111 25.2785L16.3125 26.0156L12.6875 31.2188L9.0625 32.9531V39.8906L9.43044 40.2427C12.7848 43.4526 16.6948 46.0821 20.9872 48.0149C21.2153 48.1176 21.4081 48.2804 21.5432 48.484C21.6783 48.6878 21.75 48.9241 21.75 49.1654V49.475C21.75 52.3287 22.0445 55.1752 22.6293 57.9734L23.5625 62.4375L14.5 69.375L10.875 72.8437L5.4375 74.5781V79.7812H12.6875L32.625 69.375L63.4375 76.3125Z" fill="#DA7E21"/>
<path d="M17.5948 69.8823C17.935 70.2077 18.126 70.6491 18.126 71.1094C18.126 71.5696 17.935 72.011 17.5948 72.3364C17.2547 72.6619 16.7935 72.8448 16.3125 72.8448C15.8315 72.8448 15.3703 72.6619 15.0302 72.3364L13.2177 70.6021L14.5 69.375L15.9251 68.2845L17.5948 69.8823Z" fill="#DA7E21"/>
<path d="M23.0323 68.8677C22.6918 69.1925 22.2307 69.375 21.7499 69.375C21.2692 69.375 20.808 69.1925 20.4676 68.8677L18.1113 66.6108L20.9592 64.4299L23.0323 66.4136C23.3717 66.7392 23.5624 67.1806 23.5624 67.6406C23.5624 68.1007 23.3717 68.5418 23.0323 68.8677Z" fill="#DA7E21"/>
<path d="M64.4298 72.8893C64.4298 73.2671 64.3662 73.6426 64.2418 74.0014L63.1951 76.3125H56.4911C50.3313 76.3125 44.256 74.9402 38.7467 72.3039L32.625 69.375L36.1095 66.0407C36.6859 65.4889 37.4216 65.1152 38.222 64.9677C39.0224 64.8201 39.8508 64.9053 40.6 65.2125L45.7928 67.3414C49.0637 68.6834 52.5856 69.3754 56.1445 69.375H60.7573C61.2396 69.375 61.7172 69.4656 62.1629 69.6423C62.6085 69.8188 63.0134 70.0776 63.3544 70.4041C63.6956 70.7304 63.9661 71.1178 64.1505 71.5443C64.3351 71.9707 64.4301 72.4277 64.4298 72.8893Z" fill="#DA7E21"/>
<path d="M51.7061 42.6461C51.9916 42.6201 52.277 42.5984 52.5625 42.5789V45.8265C52.5616 48.7177 51.5217 51.5209 49.6172 53.7656L49.4405 53.5185C47.9322 51.4207 47.1248 48.9343 47.125 46.388V43.045L51.7061 42.6461Z" fill="#DA7E21"/>
<path d="M59.8125 42.6049C61.6381 42.7435 63.4538 42.9845 65.25 43.3269V45.8265C65.2491 48.7179 64.2092 51.5209 62.3047 53.7656L62.128 53.5185C60.6197 51.4207 59.8123 48.9343 59.8125 46.388V42.6049Z" fill="#DA7E21"/>
<path d="M77.9375 47.4048V48.2763C77.9359 51.1669 76.8962 53.9692 74.9922 56.2133L74.8155 55.9661C73.3072 53.8684 72.4998 51.3819 72.5 48.8357V45.2802C73.1095 45.4948 73.7121 45.7225 74.3125 45.9609L77.9375 47.4048Z" fill="#DA7E21"/>
<path d="M21.75 27.75L23.5625 17.3438L28.6683 25.4866C28.8854 25.8326 29 26.2287 29 26.6324C29 26.9708 28.9193 27.3047 28.7644 27.6089C28.6092 27.913 28.3838 28.1793 28.1051 28.3874C27.8264 28.5957 27.5017 28.7403 27.1558 28.8106C26.8098 28.8808 26.4516 28.8747 26.1086 28.7926L21.75 27.75Z" fill="#BB6C1C"/>
<path d="M52.5625 42.5789V45.8265C52.5616 48.7177 51.5217 51.5209 49.6172 53.7656L49.4405 53.5185C47.9322 51.4207 47.1248 48.9343 47.125 46.388V43.045L51.7061 42.6461C51.9916 42.6201 52.277 42.5984 52.5625 42.5789Z" fill="#BB6C1C"/>
<path d="M65.25 43.3269V45.8265C65.2491 48.7179 64.2092 51.5209 62.3047 53.7656L62.128 53.5185C60.6197 51.4207 59.8123 48.9343 59.8125 46.388V42.6049C61.6381 42.7435 63.4538 42.9845 65.25 43.3269Z" fill="#BB6C1C"/>
<path d="M77.9375 47.4048V48.2763C77.9359 51.1669 76.8962 53.9692 74.9922 56.2133L74.8155 55.9661C73.3072 53.8684 72.4998 51.3819 72.5 48.8357V45.2802C73.1095 45.4948 73.7121 45.7225 74.3125 45.9609L77.9375 47.4048Z" fill="#BB6C1C"/>
<path d="M64.4298 72.8893C64.4298 73.2671 64.3662 73.6426 64.2418 74.0014L63.1951 76.3125H56.4911C50.3313 76.3125 44.256 74.9402 38.7467 72.3039L32.625 69.375L36.1095 66.0407C36.6859 65.4889 37.4216 65.1152 38.222 64.9677C39.0224 64.8201 39.8508 64.9053 40.6 65.2125L45.7928 67.3414C49.0637 68.6834 52.5856 69.3754 56.1445 69.375H60.7573C61.2396 69.375 61.7172 69.4656 62.1629 69.6423C62.6085 69.8188 63.0134 70.0776 63.3544 70.4041C63.6956 70.7304 63.9661 71.1178 64.1505 71.5443C64.3351 71.9707 64.4301 72.4277 64.4298 72.8893Z" fill="#E6E5E0"/>
<path d="M111.712 35.0806C111.504 34.918 111.262 34.8013 111.002 34.7391C110.741 34.6769 110.47 34.6708 110.207 34.7211L106.788 35.3754C104.763 35.7648 102.846 36.5539 101.158 37.6925C99.4698 38.8309 98.0483 40.2939 96.9844 41.9877C95.6087 44.1808 93.4588 45.8309 90.9232 46.6402C87.2703 47.8057 83.3002 47.6669 79.7459 46.2499L75.0092 44.3612C67.5933 41.4117 59.5397 40.2301 51.5409 40.9182L44.4948 41.5311L38.4273 31.3692C36.4761 28.1012 33.4266 25.5614 29.7751 24.1629C29.7642 24.1585 29.7524 24.1559 29.7422 24.152C29.4617 23.491 29.1285 22.8517 28.7453 22.2397L25.1158 16.4512C24.925 16.1469 24.6414 15.9058 24.3029 15.7607C23.9646 15.6155 23.5879 15.5731 23.2233 15.6393C22.859 15.7054 22.5247 15.877 22.2655 16.1307C22.0062 16.3844 21.8345 16.7082 21.7736 17.0582L20.7128 23.1539C19.9702 23.2601 19.2355 23.4123 18.5133 23.6092L15.8147 24.3463C15.4012 24.4592 15.0431 24.7094 14.8045 25.0518L11.4464 29.8735L8.25186 31.4019C7.95083 31.5459 7.69764 31.7675 7.5207 32.0413C7.34375 32.3153 7.25002 32.631 7.25 32.9531V39.8906C7.25 40.1185 7.29688 40.344 7.38795 40.5542C7.47903 40.7648 7.61252 40.956 7.78084 41.117L8.14877 41.4691C11.5766 44.7525 15.563 47.454 19.9375 49.4581V49.475C19.9382 52.4425 20.2444 55.4029 20.8519 58.3129L21.5687 61.7438L13.3672 68.0207L13.3633 68.0239C13.3125 68.063 13.2639 68.1046 13.2177 68.1486L9.89602 71.3279L4.8643 72.9322C4.50331 73.0473 4.18937 73.2682 3.96693 73.5637C3.74451 73.859 3.62489 74.2139 3.625 74.5781V79.7813C3.625 80.2413 3.81597 80.6825 4.15586 81.0077C4.49577 81.3329 4.9568 81.5156 5.4375 81.5156H12.6875C12.9908 81.5156 13.2892 81.4428 13.5555 81.3038L30.8125 72.2966V80.4438L28.1894 81.6988C27.7593 81.9046 27.4326 82.2653 27.2806 82.7017C27.1286 83.1379 27.1639 83.6142 27.3789 84.0257L29.1914 87.4945C29.3419 87.7826 29.5734 88.0247 29.8596 88.1941C30.146 88.3634 30.4758 88.4531 30.8125 88.4531H38.0625C38.4173 88.4531 38.7642 88.3536 39.0603 88.1667C39.3566 87.9799 39.5889 87.7139 39.7286 87.4019L44.6589 76.3938C45.8753 76.7407 47.1078 77.0373 48.3546 77.276C51.0337 77.788 53.759 78.0462 56.4911 78.0469H62.8888L64.0558 78.7916L61.2786 79.2345C59.8544 79.4578 58.5601 80.1591 57.6271 81.2128C56.6941 82.2664 56.1839 83.6034 56.1875 84.9844V86.7188C56.1875 87.1788 56.3785 87.62 56.7183 87.9452C57.0582 88.2704 57.5192 88.4531 58 88.4531H74.3125C74.5506 88.4531 74.7862 88.4083 75.0062 88.3211C75.226 88.2339 75.4258 88.1063 75.5942 87.9452L82.1962 81.6277L79.9414 85.9431C79.8032 86.2076 79.738 86.5013 79.7518 86.7966C79.7659 87.0921 79.8583 87.3791 80.0207 87.6306C80.1832 87.8821 80.41 88.0896 80.6798 88.2335C80.9496 88.3775 81.2535 88.4531 81.5625 88.4531H88.8125C89.0506 88.4531 89.2862 88.4083 89.5062 88.3211C89.726 88.2339 89.9258 88.1063 90.0942 87.9452L95.5317 82.7421C95.7 82.581 95.8334 82.3898 95.9245 82.1793C96.0156 81.969 96.0625 81.7435 96.0625 81.5156V72.8438C96.0625 72.5216 95.9687 72.2059 95.7918 71.9319C95.6148 71.6581 95.3617 71.4365 95.0606 71.2926L92.0519 69.853L88.9013 62.3159L89.2398 61.749C89.4639 61.372 89.7734 61.0474 90.1454 60.7996C90.5174 60.5516 90.9426 60.3864 91.3899 60.3159C97.3704 59.372 102.737 56.2501 106.366 51.604L107.663 49.95C110.712 46.0425 112.364 41.2987 112.375 36.4219C112.375 36.1652 112.315 35.9118 112.201 35.6798C112.086 35.448 111.919 35.2432 111.712 35.0806ZM76.1168 48.5593C76.0767 50.0231 75.7283 51.4639 75.0926 52.7959C74.5755 51.5341 74.3109 50.1907 74.3125 48.8352V47.8399L76.1168 48.5593ZM61.625 44.5301C62.2311 44.6018 62.8348 44.6888 63.4375 44.7837V45.828C63.4361 47.3883 63.0841 48.93 62.4051 50.3485C61.888 49.0863 61.6234 47.7426 61.625 46.3869V44.5301ZM48.9375 44.6285L50.75 44.4709V45.828C50.7486 47.3883 50.3966 48.93 49.7176 50.3485C49.2005 49.0863 48.9359 47.7426 48.9375 46.3869V44.6285ZM24.541 22.2767L25.6376 24.0257C26.2547 25.0097 26.6974 26.0846 26.9476 27.2069L23.8129 26.457L24.541 22.2767ZM41.161 75.3994L36.8674 84.9844H31.9326L31.4317 84.0257L33.4356 83.0668C33.7367 82.9229 33.9898 82.7013 34.1668 82.4275C34.3437 82.1535 34.4375 81.8378 34.4375 81.5156V78.0469C34.9183 78.0469 35.3793 77.8641 35.7192 77.5389C36.059 77.2137 36.25 76.7726 36.25 76.3125C36.25 75.8525 36.059 75.4113 35.7192 75.0861C35.3793 74.7609 34.9183 74.5781 34.4375 74.5781V72.1812L37.937 73.8555L37.9397 73.8568L41.161 75.3994ZM49.0653 73.8757C45.7654 73.244 42.5684 72.194 39.5585 70.7538L35.6843 68.9004L37.3912 67.2671C37.7106 66.9595 38.1194 66.7511 38.5643 66.6692C39.0093 66.5872 39.4697 66.6353 39.8856 66.8073L45.0771 68.9364C48.5732 70.3744 52.3391 71.1137 56.1445 71.1094H60.7579C61.0527 71.1094 61.3434 71.1764 61.6057 71.3049C61.8683 71.4335 62.0949 71.6199 62.2673 71.8489C62.4397 72.0778 62.5528 72.3425 62.5972 72.6213C62.6418 72.9003 62.6162 73.1852 62.5231 73.453L62.1311 74.5781H56.4911C53.9978 74.5775 51.5103 74.3418 49.0653 73.8744V73.8757ZM88.9421 71.7548C89.107 72.1491 89.4174 72.472 89.8144 72.6619L92.4375 73.9156V80.7972L88.0619 84.9844H84.4951L86.8086 80.557C86.9787 80.2313 87.0374 79.8628 86.9764 79.5033C86.9155 79.1441 86.7379 78.8122 86.4687 78.5548L85.011 77.16L83.4971 71.3648L86.6042 66.1616L88.9421 71.7548ZM104.762 47.8688L103.467 49.5227C100.396 53.4539 95.8547 56.0955 90.794 56.8938C89.8159 57.0481 88.8861 57.4096 88.0728 57.9515C87.2594 58.4938 86.5827 59.2029 86.0924 60.0274L79.989 70.2483C79.757 70.6366 79.6909 71.0955 79.8044 71.5293L81.3677 77.5142L73.5619 84.9844H59.8125C59.8111 84.4253 60.0178 83.8837 60.3957 83.4573C60.7734 83.0306 61.2976 82.7466 61.8742 82.656L69.1725 81.492C69.5309 81.4348 69.8633 81.2759 70.1261 81.0356C70.3889 80.7954 70.5704 80.4852 70.6465 80.1453C70.7228 79.8053 70.6907 79.4511 70.5538 79.1289C70.4172 78.8068 70.1825 78.5312 69.88 78.3383L65.5944 75.6042L65.9619 74.5497C66.2367 73.7606 66.3117 72.9205 66.1805 72.0982C66.0495 71.2761 65.716 70.4954 65.2079 69.8207C64.6997 69.1459 64.0311 68.5965 63.2576 68.2173C62.4839 67.8384 61.627 67.6406 60.7579 67.6406H56.1445C52.8303 67.6443 49.5504 67 46.5058 65.7476L41.3144 63.6184C40.233 63.1709 39.0358 63.0458 37.8788 63.2589C36.7219 63.4723 35.6589 64.0138 34.8285 64.8136L31.5278 67.9721L12.2253 78.0469H7.25V75.8282L11.4482 74.489C11.7151 74.4038 11.9577 74.2605 12.1567 74.0702L14.5 71.8278L15.0308 72.3358C15.1992 72.4969 15.399 72.6246 15.6189 72.7117C15.8388 72.7989 16.0745 72.8438 16.3125 72.8438C16.5505 72.8438 16.7862 72.7989 17.0061 72.7117C17.226 72.6246 17.4258 72.4969 17.5942 72.3358C17.7625 72.1747 17.896 71.9835 17.9871 71.773C18.0782 71.5627 18.125 71.3372 18.125 71.1094C18.125 70.8815 18.0782 70.6561 17.9871 70.4455C17.896 70.2353 17.7625 70.044 17.5942 69.883L17.2135 69.5187L19.4001 67.8449L20.4683 68.8671C20.6367 69.0281 20.8365 69.1558 21.0564 69.243C21.2763 69.3301 21.512 69.375 21.75 69.375C21.988 69.375 22.2237 69.3301 22.4436 69.243C22.6635 69.1558 22.8633 69.0281 23.0317 68.8671C23.2 68.706 23.3334 68.5148 23.4245 68.3045C23.5156 68.094 23.5625 67.8685 23.5625 67.6406C23.5625 67.4128 23.5156 67.1873 23.4245 66.9768C23.3334 66.7665 23.2 66.5753 23.0317 66.4142L22.2484 65.6645L24.6953 63.7918C24.955 63.5933 25.1523 63.3301 25.2662 63.0311C25.38 62.7324 25.4058 62.4093 25.3406 62.0974L24.4074 57.6326C23.8464 54.9465 23.5634 52.2142 23.5625 49.475V49.1654C23.5609 48.5955 23.3908 48.0374 23.0715 47.5561C22.7523 47.0746 22.2972 46.6898 21.7588 46.4457C17.7246 44.6313 14.0438 42.1711 10.875 39.1713V34.025L13.4981 32.7699C13.7802 32.6351 14.0206 32.4319 14.1955 32.1809L17.451 27.5081L19.5091 26.9455C19.6974 26.8941 19.8868 26.8468 20.0773 26.8033L19.962 27.4649C19.8871 27.895 19.9843 28.3364 20.2342 28.7011C20.4841 29.0657 20.8684 29.3268 21.3105 29.4326L28.5605 31.1669C28.8276 31.2309 29.1065 31.2357 29.3761 31.181C29.6455 31.1262 29.8983 31.0137 30.1154 30.8513C30.3326 30.6891 30.5082 30.4816 30.629 30.2449C30.7497 30.0079 30.8125 29.748 30.8125 29.4844V29.3784C30.8125 29.1015 30.8023 28.8253 30.7851 28.55C32.642 29.6968 34.1835 31.2541 35.2801 33.0904L41.9263 44.2198C42.0985 44.5088 42.3538 44.7443 42.6619 44.898C42.9703 45.0517 43.3181 45.1174 43.6643 45.087L45.3125 44.9437V46.3874C45.3086 49.2855 46.2274 52.116 47.9463 54.5021L48.1237 54.749C48.2834 54.971 48.495 55.1544 48.7417 55.2847C48.9885 55.4148 49.2633 55.4883 49.5449 55.4991C49.5692 55.4991 49.5934 55.5004 49.6174 55.5004C49.8868 55.5004 50.153 55.4428 50.3963 55.332C50.6397 55.2212 50.854 55.0597 51.0239 54.8596C53.1885 52.3046 54.3716 49.1164 54.375 45.8274V44.225C55.5833 44.1843 56.7917 44.1901 58 44.2424V46.3869C57.9961 49.2851 58.9149 52.1156 60.6338 54.5017L60.8112 54.7486C60.9709 54.9706 61.1825 55.154 61.4292 55.2843C61.676 55.4144 61.9508 55.4879 62.2324 55.4987C62.2567 55.4987 62.2809 55.5 62.3049 55.5C62.5743 55.5 62.8405 55.4423 63.0838 55.3316C63.3272 55.2208 63.5415 55.0593 63.7114 54.8592C65.876 52.3044 67.0589 49.1162 67.0625 45.8274V45.4931C68.2848 45.7834 69.4931 46.1225 70.6875 46.5107V48.8352C70.6834 51.7332 71.6021 54.5637 73.3213 56.9495L73.4987 57.1964C73.6584 57.4187 73.8698 57.6021 74.1165 57.7324C74.3633 57.8624 74.6381 57.9359 74.9197 57.9468C74.9439 57.9468 74.9682 57.9481 74.9924 57.9481C75.2618 57.9481 75.528 57.8906 75.7713 57.7796C76.0147 57.6688 76.229 57.5075 76.3989 57.3074C78.1944 55.1878 79.3223 52.6227 79.6505 49.9123C83.6784 51.2085 88.0379 51.2148 92.0698 49.9298C95.4263 48.8584 98.2719 46.6742 100.093 43.7713C100.897 42.492 101.971 41.387 103.246 40.5271C104.521 39.6671 105.97 39.0711 107.499 38.7772L108.622 38.5623C108.218 41.9363 106.886 45.1475 104.762 47.8688Z" fill="black"/>
<path d="M18.125 35.1211C19.3763 35.1211 20.3906 34.1505 20.3906 32.9531C20.3906 31.7558 19.3763 30.7852 18.125 30.7852C16.8737 30.7852 15.8594 31.7558 15.8594 32.9531C15.8594 34.1505 16.8737 35.1211 18.125 35.1211Z" fill="black"/>
</svg>
